<?xml version="1.0" encoding="UTF-8"?>
<svg width="900px" height="369px" viewBox="0 0 900 369" version="1.1" xmlns="http://www.w3.org/2000/svg" xmlns:xlink="http://www.w3.org/1999/xlink">
    <!-- Generator: Sketch 52.6 (67491) - http://www.bohemiancoding.com/sketch -->
    <title>teaser</title>
    <desc>Created with Sketch.</desc>
    <defs>
        <path d="M12.7443928,0.86470525 C13.7491316,0.408979746 15.3823563,0.410894392 16.3828739,0.86470525 L24.3875322,4.49542693 C25.392271,4.95115244 26.4182238,6.19315649 26.6784025,7.26679967 L28.610761,15.2407933 C28.8712349,16.3156546 28.5029294,17.871378 27.7878457,18.7159317 L22.3196333,25.174195 C21.6046758,26.0185996 20.1368443,26.7031247 19.0342045,26.7031247 L10.0930621,26.7031247 C8.9935274,26.7031247 7.52271706,26.0187487 6.80763335,25.174195 L1.33942092,18.7159317 C0.62446344,17.8715271 0.256326938,16.3144364 0.516505658,15.2407933 L2.44886408,7.26679967 C2.70933801,6.19193828 3.73921681,4.94923779 4.73973439,4.49542693 L12.7443928,0.86470525 Z" id="path-1"></path>
        <linearGradient x1="12.7542673%" y1="-18.6617048%" x2="88.2666158%" y2="84.6075483%" id="linearGradient-3">
            <stop stop-color="#FFFFFF" offset="0%"></stop>
            <stop stop-color="#439246" offset="100%"></stop>
        </linearGradient>
        <linearGradient x1="50%" y1="4.93673768%" x2="148.756007%" y2="175.514523%" id="linearGradient-4">
            <stop stop-color="#FFFFFF" offset="0%"></stop>
            <stop stop-color="#439246" offset="100%"></stop>
        </linearGradient>
        <linearGradient x1="19.1574381%" y1="-9.04800713%" x2="82.2203149%" y2="77.9084293%" id="linearGradient-5">
            <stop stop-color="#FFFFFF" offset="0%"></stop>
            <stop stop-color="#439246" offset="100%"></stop>
        </linearGradient>
        <linearGradient x1="57.4403751%" y1="26.3148481%" x2="137.966711%" y2="158.080556%" id="linearGradient-6">
            <stop stop-color="#FFFFFF" offset="0%"></stop>
            <stop stop-color="#439246" offset="100%"></stop>
        </linearGradient>
    </defs>
    <g id="teaser" stroke="none" stroke-width="1" fill="none" fill-rule="evenodd">
        <rect id="Rectangle" stroke="#979797" fill="#D8D8D8" x="436.5" y="44.5" width="437" height="290" rx="8"></rect>
        <g id="Logo" transform="translate(841.000000, 305.000000)">
            <g id="Rectangle-2">
                <mask id="mask-2" fill="white">
                    <use xlink:href="#path-1"></use>
                </mask>
                <use id="Mask" fill="#009F76" xlink:href="#path-1"></use>
                <polygon fill="#000000" opacity="0.289628623" mask="url(#mask-2)" points="-5.8828125 17.1175168 10.2747396 7.87367142 21.1575521 18.3662791 8.24414062 29.0937386"></polygon>
            </g>
            <path d="M19,12.2748729 C18.521178,13.1780813 17.816155,13.9767537 17.0327797,14.4200022 L17.5543257,14.1249017 C16.114263,14.9397162 13.7746297,14.9369832 12.3393972,14.1249017 L12.8609433,14.4200022 C11.4208805,13.6051877 10.253479,11.604408 10.253479,9.94756481 L10.253479,10.6305273 C10.253479,9.8211272 10.5337742,8.92806956 10.9880538,8.13175589 L19,12.2748729 Z" id="Combined-Shape" fill="url(#linearGradient-3)" transform="translate(14.626740, 11.433372) scale(-1, 1) translate(-14.626740, -11.433372) "></path>
            <path d="M16.9688047,8.14969724 C17.433486,8.94047858 17.7198128,9.83272654 17.7198128,10.6444982 L17.7198128,9.26083443 C17.7198128,10.9144433 16.5311171,12.8962747 15.0779364,13.6802844 L16.0943361,13.1319237 C14.6352681,13.9191096 12.263764,13.9159333 10.8105834,13.1319237 L11.8269831,13.6802844 C11.118135,13.2978517 10.4744906,12.6333311 10,11.8618873 L16.9688047,8.14969724 Z" id="Combined-Shape" fill="url(#linearGradient-4)" transform="translate(13.859906, 10.935410) scale(-1, 1) translate(-13.859906, -10.935410) "></path>
            <path d="M20.7672226,18.0162575 C20.2954827,18.9044604 19.6120398,19.6925867 18.8520185,20.1438422 L17.2911408,21.0705986 C15.8680387,21.9155521 13.5601423,21.9152006 12.137632,21.0705986 L10.5767544,20.1438422 C9.15365224,19.2988887 8,17.2613726 8,15.6223058 L8,13.6323238 C8,12.8281258 8.27345557,11.9356801 8.71820065,11.1340238 L20.7672226,18.0162575 Z" id="Combined-Shape" fill="url(#linearGradient-5)"></path>
            <path d="M20.3212634,11.1358493 C20.7427375,11.9192161 21,12.7832904 21,13.5647494 L21,15.5898851 C21,17.2460316 19.8509532,19.2690637 18.4198739,20.116542 L16.8065382,21.0719516 C15.3815739,21.9158087 13.0773653,21.9194299 11.646286,21.0719516 L10.0329504,20.116542 C9.33361505,19.7023989 8.6992641,19.0033142 8.23455349,18.2029799 L20.3212634,11.1358493 Z" id="Combined-Shape" fill="url(#linearGradient-6)"></path>
        </g>
        <text id="Kubernetes-Cluster" font-family="72-Regular, 72" font-size="21" font-weight="normal" fill="#000000">
            <tspan x="696.283203" y="36">Kubernetes Cluster</tspan>
        </text>
        <g id="user" transform="translate(39.000000, 100.000000)" stroke="#979797" stroke-width="2">
            <circle id="Oval" cx="41.5" cy="21.5" r="21.5"></circle>
            <path d="M41.5,43 L41.5,118.5" id="Line" stroke-linecap="square"></path>
            <path d="M41.5,119 L63,172" id="Line" stroke-linecap="square"></path>
            <path d="M41.5,119 L20,172" id="Line" stroke-linecap="square"></path>
            <path d="M41.9565217,60 L83.0869565,85" id="Line" stroke-linecap="square"></path>
            <path d="M42.0227273,60 L0,85" id="Line" stroke-linecap="square"></path>
        </g>
        <polygon id="Polygon" stroke="#009F76" fill="#FFFFFF" points="816.5 56 853.636995 73.8842344 862.809076 114.069744 837.109478 146.296021 795.890522 146.296021 770.190924 114.069744 779.363005 73.8842344"></polygon>
        <polygon id="Polygon" stroke="#009F76" fill="#FFFFFF" points="816.5 202 853.636995 219.884234 862.809076 260.069744 837.109478 292.296021 795.890522 292.296021 770.190924 260.069744 779.363005 219.884234"></polygon>
        <text id="/api/puppies" font-family="72-Bold, 72" font-size="16" font-weight="bold" fill="#000000">
            <tspan x="468.128906" y="90">/api/puppies</tspan>
        </text>
        <text id="/api/puppies" font-family="72-Regular, 72" font-size="16" font-weight="normal" fill="#000000">
            <tspan x="471.496094" y="277">/api/puppies</tspan>
        </text>
        <text id="/api/v1/puppies" font-family="72-Bold, 72" font-size="17" font-weight="bold" fill="#000000">
            <tspan x="177.414551" y="170">/api/v1/puppies</tspan>
        </text>
        <text id="svc-V1.3" font-family="72-Regular, 72" font-size="18" font-weight="normal" fill="#000000">
            <tspan x="784.329102" y="97">svc V1.3</tspan>
        </text>
        <text id="svc-V2.1" font-family="72-Regular, 72" font-size="18" font-weight="normal" fill="#000000">
            <tspan x="785.329102" y="250">svc V2.1</tspan>
        </text>
        <rect id="Rectangle" stroke="#009F76" fill="#FFFFFF" x="604.5" y="232.5" width="105" height="41" rx="8"></rect>
        <path id="Line-2" d="M348.114987,178.75 L334.769478,171.243151 L333.026326,170.262629 L334.987371,166.776326 L336.730522,167.756849 L356.730522,179.006849 L359.829458,180.75 L356.730522,182.493151 L336.730522,193.743151 L334.987371,194.723674 L333.026326,191.237371 L334.769478,190.256849 L348.114987,182.75 L335.75,182.75 L176.5,182.75 L174.5,182.75 L174.5,178.75 L176.5,178.75 L335.75,178.75 L348.114987,178.75 Z" fill="#4A4A4A" fill-rule="nonzero"></path>
        <path id="Line-2" d="M760.189987,98 L746.844478,90.4931511 L745.101326,89.5126286 L747.062371,86.0263264 L748.805522,87.0068489 L768.805522,98.2568489 L771.904458,100 L768.805522,101.743151 L748.805522,112.993151 L747.062371,113.973674 L745.101326,110.487371 L746.844478,109.506849 L760.189987,102 L747.825,102 L716.425,102 L714.425,102 L714.425,98 L716.425,98 L747.825,98 L760.189987,98 Z" fill="#4A4A4A" fill-rule="nonzero"></path>
        <path id="Line-2" d="M591.614987,98 L578.269478,90.4931511 L576.526326,89.5126286 L578.487371,86.0263264 L580.230522,87.0068489 L600.230522,98.2568489 L603.329458,100 L600.230522,101.743151 L580.230522,112.993151 L578.487371,113.973674 L576.526326,110.487371 L578.269478,109.506849 L591.614987,102 L579.25,102 L473,102 L473,154 L473,156 L469,156 L469,154 L469,100 L469,98 L471,98 L579.25,98 L591.614987,98 Z" fill="#4A4A4A" fill-rule="nonzero"></path>
        <path id="Line-2" d="M588.932493,255 L580.259739,250.121576 L579.388163,249.631314 L580.368686,247.888163 L581.240261,248.378424 L593.240261,255.128424 L594.789729,256 L593.240261,256.871576 L581.240261,263.621576 L580.368686,264.111837 L579.388163,262.368686 L580.259739,261.878424 L588.932493,257 L580.75,257 L471,257 L470,257 L470,256 L470,210 L470,209 L472,209 L472,210 L472,255 L580.75,255 L588.932493,255 Z" fill="#4A4A4A" fill-rule="nonzero"></path>
        <path id="Line-2" d="M760.943076,254.968103 L752.321606,249.999607 L751.455184,249.500294 L752.45381,247.76745 L753.320232,248.266763 L765.249272,255.14139 L766.789578,256.029058 L765.231116,256.884447 L753.161458,263.509088 L752.284823,263.990244 L751.322511,262.236974 L752.199145,261.755818 L760.922244,256.967994 L752.754991,256.882919 L715.989584,256.499946 L714.989638,256.48953 L715.01047,254.489638 L716.010416,254.500054 L752.775823,254.883027 L760.943076,254.968103 Z" fill="#4A4A4A" fill-rule="nonzero"></path>
        <rect id="Rectangle" stroke="#009F76" fill-opacity="0.797016531" fill="#FFFFFF" x="604.5" y="78.5" width="105" height="41" rx="8"></rect>
        <rect id="Rectangle" stroke="#009F76" fill-opacity="0.797016531" fill="#FFFFFF" x="368.5" y="161.5" width="136" height="44" rx="8"></rect>
        <text id="Service-V1" font-family="72-Regular, 72" font-size="18" font-weight="normal" fill="#000000">
            <tspan x="614.289551" y="104">Service-V1</tspan>
        </text>
        <text id="Ingress-routing" font-family="72-Regular, 72" font-size="18" font-weight="normal" fill="#000000">
            <tspan x="378.464844" y="190">Ingress routing</tspan>
        </text>
        <text id="Service-V2" font-family="72-Regular, 72" font-size="18" font-weight="normal" fill="#000000">
            <tspan x="614.289551" y="260">Service-V2</tspan>
        </text>
        <text id="Pod" font-family="72-Regular, 72" font-size="18" font-weight="normal" fill="#000000">
            <tspan x="801.122559" y="121">Pod</tspan>
        </text>
        <text id="Pod" font-family="72-Regular, 72" font-size="18" font-weight="normal" fill="#000000">
            <tspan x="801.122559" y="274">Pod</tspan>
        </text>
    </g>
</svg>